<?xml version="1.0" encoding="utf-8"?>
<svg version="1.1" id="cameleon" xmlns="http://www.w3.org/2000/svg" xmlns:xlink="http://www.w3.org/1999/xlink" x="0px" y="0px" viewBox="0 0 3118.1 1247.2" style="enable-background:new 0 0 3118.1 1247.2;" xml:space="preserve">
<style type="text/css">
    .st0{enable-background:new;}
</style>
<metadata>
  <rdf:RDF
       xmlns:rdf = "http://www.w3.org/1999/02/22-rdf-syntax-ns#"
       xmlns:rdfs = "http://www.w3.org/2000/01/rdf-schema#"
       xmlns:dc = "http://purl.org/dc/elements/1.1/" >
    <rdf:Description about="https://github.com/cameleon-rs"
         dc:title="Cameleon logo"
         dc:format="image/svg+xml"
         dc:language="en" >
      <dc:creator>
         Yui Maruya
      </dc:creator>
    </rdf:Description>
  </rdf:RDF>
</metadata>

<title>Cameleon</title>
<desc>A logo for cameleon repository</desc>
<g transform="translate(0.000000,1094.000000) scale(0.100000,-0.100000)">
	<path d="M23390.5,10007.8c-50-17-61-32-195-248c-62-98-119-186-128-195c-12-12-36-18-73-20c-52-2-56,0-87,36
		c-68,79-304,324-323,334c-29,16-91,13-127-6c-38-19-47-38-150-310c-40-104-75-193-79-197c-4-3-30-13-59-21l-52-15l-196,139
		c-108,77-208,144-221,150c-39,14-76,11-111-11c-54-32-66-62-87-205c-4-23-8-50-10-60c-2-11-14-81-26-157l-23-136l-47-26
		c-26-14-52-26-58-26c-5,0-105,43-221,95c-231,105-277,117-330,87c-67-37-72-60-65-297c4-115,7-233,8-261v-51l100-69
		c139-96,320-230,454-336c69-56,118-88,127-84c8,3,48,27,87,54c232,156,508,291,793,388c114,39,312,95,385,108c14,2,45,9,70,15
		l45,11l99-103c54-56,159-164,232-240c142-146,183-174,267-181c51-5,131,20,173,53c16,12,105,95,198,184c313,301,287,278,326,272
		c60-9,84-14,202-45c513-133,980-376,1393-724c81-68,319-306,385-385c157-187,380-513,380-554c0-7-54-136-121-287
		c-216-492-219-499-213-559c7-72,38-134,87-176c22-19,44-35,48-35s45-18,91-39c45-22,187-85,313-141c127-56,231-103,232-104
		c6-5,17-251,17-371c0-126-10-339-18-383c-2-9-6-37-9-62c-14-101-18-127-22-150c-3-14-8-41-11-60c-4-19-8-42-9-50
		c-13-70-75-292-114-410c-134-399-326-747-603-1091l-88-109l38-24c65-42,120-113,156-206c18-46,20-53,36-130c23-120,5-322-39-432
		c-8-22-6-49,10-125c11-54,21-98,22-99c2-2,257-61,293-68c11-2,39-9,64-16c24-6,67-13,96-15c84-6,144,50,144,133c0,14-21,113-46,221
		s-48,210-51,226c-3,17-6,33-6,37c-1,4,14,27,33,52l35,44l125-4c318-12,380-11,413,5c42,22,66,58,71,109c3,38-9,72-99,270l-103,227
		l24,47c30,60,27,58,120,73c22,3,50,8,64,10s95,16,180,30c203,34,245,61,245,159c0,36-12,58-92,171c-51,72-117,166-148,211l-56,81
		l16,55l16,55l192,73c106,40,216,83,244,96c64,28,93,70,93,134c0,44-2,47-112,155c-62,61-150,144-195,186c-87,80-88,82-68,174
		c3,13,69,59,191,135c235,145,264,170,271,231c10,86,3,92-334,304c-127,79-128,80-137,157c-3,35,0,41,58,94c324,301,326,303,326,369
		c0,86-23,101-332,216l-196,74l-18,57l-17,57l120,168c66,92,133,188,149,211c36,56,38,114,6,160c-22,30-71,64-89,61
		c-7,0-84,11-108,17c-5,1-30,5-55,8c-25,4-70,11-100,16s-72,12-94,16c-104,16-108,18-137,72l-26,49l98,219c54,120,100,235,103,254
		c8,50-25,114-70,135c-31,14-63,16-277,10c-133-4-245-9-249-11c-7-5-84,84-81,94c0,4,4,24,7,44s17,86,32,145c14,59,28,119,30,133
		c3,14,9,41,15,60c31,113,19,177-42,220c-44,32-85,28-384-44l-180-43l-47,39l-46,38l4,88c13,290,12,417-3,449c-19,40-51,62-106,69
		c-38,6-64-4-270-97l-227-102l-50,23c-44,21-58,37-66,75c-3,15-13,80-20,123c-6,44-42,254-49,295c-18,93-121,145-198,99
		c-18-10-112-76-210-145c-97-69-182-127-189-129c-7-1-36,4-63,10l-51,13l-73,197c-104,279-115,300-164,322c-36,17-64,18-108,4
		c-16-4-150-139-296-297l-72-78l-53,2c-65,3-67,5-182,191c-145,233-169,264-214,275
		C23439.5,10018.8,23418.5,10017.8,23390.5,10007.8z M23532.5,9126.8c161-82,199-301,73-423c-37-36-117-76-164-83
		c-44-6-130,19-179,52c-173,119-138,392,61,466C23381.5,9160.8,23476.5,9154.8,23532.5,9126.8z M26923.5,6539.8
		c87-44,147-142,147-241c0-42-33-123-67-162c-133-151-349-122-443,59c-32,60-30,161,3,228
		C26629.5,6556.8,26789.5,6608.8,26923.5,6539.8z"/>
	<path d="M18078.5,9467.8c-80-21-177-73-223-118c-97-96-138-239-154-541c-7-135-14-203-31-300c-7-40-37-101-76-153
		c-29-38-32-49-31-110c0-78,17-117,69-164c59-54,67-82,68-240c1-60-2-71-33-115c-65-91-54-196,29-282c27-29,50-58,51-64
		c0-7,3-23,5-37c30-158,26-218-17-278c-24-33-34-59-37-96c-7-83,13-134,73-191c29-27,58-59,63-70c15-29,54-242,54-288
		c-1-22-14-66-33-103c-27-57-31-72-25-116c9-63,38-121,72-145c81-56,93-74,130-193c35-115,36-130,15-208c-26-94,39-216,128-243
		c53-16,75-38,128-126s61-135,35-205c-36-101,37-243,136-263c70-14,92-39,141-159c40-96,41-127,7-192c-32-62-36-87-21-151
		s53-117,104-142c51-26,85-82,126-204c55-166,64-234,60-472c-2-115-5-219-8-230s-8-45-11-76c-11-92-14-100-56-158
		c-194-268-328-612-367-941c-15-125-7-486,11-541c3-8,7-30,10-49c25-196,155-524,286-725c116-178,300-389,445-510
		c83-70,279-200,354-235l53-24l-6-46c-3-25-10-65-17-90c-6-25-12-52-14-60c-11-51-54-161-103-260c-31-63-58-118-60-123
		c-7-15,177,57,293,114c139,69,266,157,382,263l81,76l79-7c43-4,121-7,173-7c110-1,106,2,167-126c67-143,122-321,135-435
		c2-16,7-32,12-35c13-7,139,208,181,309c34,79,81,228,105,327l10,41l83,17c45,9,141,32,212,51l130,35l53-58c117-125,246-353,302-532
		l27-85l22,43c63,123,137,354,156,482c3,25,8,56,10,70c3,14,7,61,10,104c5,82,7,89,28,92c57,9,243,34,287,39c30,4,66,8,80,10
		c109,16,567,28,575,15c3-4,12-50,21-101c29-167,22-428-16-567l-9-34l27,18c177,112,382,335,503,546c40,69,54,86,69,83
		c39-7,263-23,352-24l56-1l20-63c50-156,67-271,67-459v-137l29,27c170,156,317,374,421,622c11,26,7,25,125,34c123,9,203,17,218,21
		c31,11,168-236,226-408l33-97l26,52c53,109,113,278,132,379c6,31,19,92,21,102c1,4,2,20,3,37c1,27,8,33,67,60
		c175,79,359,239,473,409c95,143,154,269,212,454l27,87l-41,29c-98,66-216,119-363,162c-66,19-78,22-124,34c-11,3-29,7-40,10
		c-48,12-67,16-90,21c-14,3-43,10-65,16s-53,12-70,15c-16,2-36,6-43,8c-77,26-649,27-787,1c-11-2-45-7-76-10c-31-4-67-9-80-11
		c-13-3-39-7-59-10s-47-8-60-10c-14-3-38-8-55-10c-75-13-195-38-250-52c-33-8-71-17-85-19c-125-22-444-121-711-219
		c-218-81-405-140-479-151c-19-3-41-7-49-10c-24-8-153-18-236-18c-247,0-373,48-503,189c-100,109-133,207-92,273c25,40,60,55,97,41
		c29-11,50-32,94-96c40-57,103-109,174-143c76-36,117-44,235-44c100-1,140,4,240,29c11,3,28,7,38,9c135,34,479,135,712,211
		c268,87,432,136,500,149c14,3,34,7,45,10c61,15,220,46,262,52c26,3,55,8,65,9c9,2,38,7,65,11c26,3,56,8,65,10c9,1,48,6,85,9
		c37,4,77,9,87,11c131,24,606,24,734-1c11-2,43-6,72-10s62-9,74-11s32-6,46-9c48-9,66-13,130-29c116-30,312-97,439-152
		c69-29,128-51,132-48c8,5,4,271-4,309c-3,11-8,43-11,70c-4,28-16,91-27,141l-20,91l22,54c11,30,23,63,25,74s8,42,13,68
		c9,49,7,229-3,245c-3,5-8,24-11,42c-10,55-56,139-98,177c-47,42-93,63-146,66c-39,2-40,4-87,92c-146,275-282,462-680,930
		c-170,200-176,207-277,320c-255,283-638,666-859,858c-18,16-44,38-58,50c-170,149-434,349-606,460l-121,78l-79,162
		c-333,685-759,1271-1275,1752c-527,492-905,779-1639,1244c-250,159-561,322-772,405c-151,59-605,195-742,222c-20,4-75,14-107,19
		c-8,2-55,6-105,10c-49,4-98,9-109,11C18299.5,9482.8,18127.5,9480.8,18078.5,9467.8z M22546.5,5399.8c14-3,59-13,100-22
		c391-86,735-363,879-709c38-91,78-227,88-302c10-73,10-249,1-328c-51-416-330-804-730-1015c-86-45-292-122-363-134
		c-16-3-41-8-55-11c-89-20-317-26-420-12c-115,15-137,20-219,43c-379,110-677,373-818,721c-202,502-43,1075,402,1450
		c195,163,473,287,720,319c28,3,52,8,54,10C22191.5,5414.8,22518.5,5406.8,22546.5,5399.8z M23765.5,4006.8c47-178,49-380,5-572
		c-113-496-525-897-1051-1022c-131-31-159-34-338-34c-192,1-285,15-448,72c-301,104-562,326-696,592c-17,34-29,61-25,61
		c3,0,28-20,55-44s83-66,125-92c42-27,117-86,166-131c158-145,348-251,516-288c12-3,32-7,45-10c55-13,76-16,137-22
		c143-15,295-5,425,26c549,133,940,566,981,1086c3,39,17,105,30,149c13,43,32,120,41,172s18,94,19,94
		C23754.5,4043.8,23760.5,4026.8,23765.5,4006.8z M25164.5,2737.8c137-68,266-285,276-466c5-91-8-109-66-97c-160,36-309,173-387,357
		c-24,59-30,122-13,163c11,28,82,69,118,69C25103.5,2763.8,25135.5,2751.8,25164.5,2737.8z"/>
	<path d="M22141.5,5127.8c-440-80-793-385-909-786c-30-105-38-161-37-274c1-345,203-664,522-825c75-37,167-72,225-84
		c260-55,494-35,724,63c159,67,279,151,400,278c192,202,292,454,285,718c-4,141-24,228-80,351c-135,295-389,486-750,561
		C22455.5,5142.8,22220.5,5141.8,22141.5,5127.8z"/>
	<path d="M24664.5,5251.8c-139-116-255-213-258-215c-9-8,23-21,81-33c33-7,59-16,59-19c0-4-38-38-85-76c-46-39-83-73-82-77
		c1-3,63-69,137-145c237-244,405-426,553-597c10-12,28-32,40-46c48-54,335-399,381-458c27-34,50-62,52-62s44,34,94,76
		c51,42,93,74,95,72c2-1,6-32,10-68c7-68,15-123,18-126c5-5,477,398,473,404c-2,4-7,40-10,80c-4,40-9,78-11,85s-7,30-10,52
		c-27,190-131,453-247,630c-178,272-419,482-710,620c-85,40-291,115-316,115C24922.5,5463.8,24803.5,5368.8,24664.5,5251.8z
		 M25030.5,5292.8c396-137,729-435,910-813c41-85,100-250,110-306c2-14,9-45,14-70c6-25,14-70,17-100c4-30,9-58,11-62
		c5-8-26-37-146-136l-84-70l-32,128c-63,250-177,477-336,672c-58,72-182,196-247,248c-132,106-342,224-499,280c-34,13-61,26-60,30
		c6,16,254,219,267,219C24963.5,5313.8,24997.5,5304.8,25030.5,5292.8z"/>
</g>
<g class="st0">
	<path d="M400.7,780.8c-7.9-5.4-16-8.1-24.1-8.1c-4.4,0-8.5,0.8-12.3,2.3c-3.8,1.5-7.1,3.7-10,6.5c-2.9,2.8-5.1,6.1-6.7,9.9
		c-1.6,3.8-2.4,8.1-2.4,12.8c0,4.6,0.8,8.7,2.4,12.5c1.6,3.8,3.8,7.1,6.6,9.9s6.1,4.9,10,6.5c3.9,1.5,8,2.3,12.4,2.3
		c8.6,0,16.6-3,24.1-8.9v39c-11.3,4.9-22.1,7.4-32.2,7.4c-9.5,0-18.5-1.6-27-4.8c-8.5-3.2-16.1-7.8-22.6-13.8
		c-6.5-6-11.7-13.2-15.6-21.5c-3.9-8.4-5.8-17.7-5.8-28c0-10.3,1.9-19.7,5.6-28.3c3.7-8.5,8.8-15.9,15.2-22.1
		c6.4-6.2,14.1-11,22.9-14.5c8.9-3.5,18.4-5.2,28.5-5.2c11.2,0,21.5,2.4,30.9,7.1V780.8z"/>
	<path d="M527.2,738.7h46.1v130.1h-46.1v-14.5c-9.8,12.3-23.1,18.5-39.8,18.5c-9.5,0-18.2-1.7-26.1-5.2c-7.9-3.5-14.9-8.3-20.8-14.6
		c-5.9-6.3-10.5-13.6-13.8-22.1c-3.3-8.4-4.9-17.7-4.9-27.6c0-9.3,1.6-18.1,4.8-26.5c3.2-8.4,7.7-15.7,13.4-21.9
		c5.7-6.3,12.6-11.2,20.5-14.8c7.9-3.6,16.7-5.5,26.4-5.5c16.2,0,29.7,5.7,40.3,17V738.7z M469.4,803.3c0,4.2,0.8,8.2,2.3,11.8
		c1.5,3.6,3.6,6.8,6.2,9.5c2.6,2.7,5.7,4.8,9.4,6.3c3.6,1.5,7.6,2.3,11.8,2.3c4.1,0,7.9-0.8,11.5-2.3c3.6-1.5,6.8-3.6,9.4-6.3
		c2.6-2.7,4.7-5.8,6.3-9.4c1.6-3.5,2.4-7.4,2.4-11.4s-0.8-7.9-2.4-11.5c-1.6-3.6-3.7-6.8-6.3-9.5c-2.6-2.7-5.7-4.8-9.4-6.3
		c-3.6-1.5-7.5-2.3-11.5-2.3c-4.2,0-8.2,0.8-11.8,2.3c-3.6,1.5-6.8,3.6-9.4,6.3c-2.6,2.7-4.7,5.8-6.2,9.3
		C470.1,795.5,469.4,799.3,469.4,803.3z"/>
	<path d="M604.5,738.7h45.9v16c12.5-12,26.5-18,42.1-18c19.3,0,34,8.1,44.1,24.3c10.3-16.4,25-24.6,44.1-24.6
		c6.1,0,11.8,0.9,17.2,2.7c5.4,1.8,10.1,4.6,13.9,8.4c3.9,3.8,7,8.7,9.3,14.8c2.3,6.1,3.4,13.4,3.4,22.1v84.4h-45.9v-64.1
		c0-6.6-0.5-12-1.4-16.2c-0.9-4.2-2.3-7.5-4.1-9.9c-1.8-2.4-3.8-4-6.2-4.8c-2.4-0.8-4.9-1.3-7.6-1.3c-14.7,0-22.1,10.7-22.1,32.2
		v64.1h-45.9v-64.1c0-6.6-0.4-12-1.3-16.4c-0.8-4.3-2.1-7.7-3.7-10.3c-1.6-2.5-3.7-4.3-6.2-5.2c-2.5-0.9-5.5-1.4-8.9-1.4
		c-2.9,0-5.6,0.4-8.1,1.3c-2.5,0.8-4.8,2.5-6.7,4.9c-1.9,2.5-3.5,5.8-4.6,10.1c-1.1,4.3-1.6,9.9-1.6,16.9v64.1h-45.9V738.7z"/>
	<path d="M897.3,811.4c0,19.8,9.3,29.7,27.9,29.7c10,0,17.5-4.1,22.6-12.2h44.4c-9,29.8-31.4,44.6-67.2,44.6c-11,0-21-1.6-30.2-4.9
		c-9.1-3.3-16.9-8-23.5-14.1c-6.5-6.1-11.5-13.4-15.1-21.8c-3.5-8.5-5.3-17.9-5.3-28.4c0-10.8,1.7-20.6,5.1-29.3
		c3.4-8.7,8.2-16.1,14.5-22.2c6.3-6.1,13.8-10.8,22.7-14.1c8.9-3.3,18.9-4.9,30-4.9c11,0,20.9,1.6,29.7,4.9
		c8.8,3.3,16.2,8.1,22.3,14.3c6.1,6.3,10.7,13.9,13.9,22.9c3.2,9,4.8,19.2,4.8,30.6v4.8H897.3z M951.1,784.8
		c-1.5-6.4-4.7-11.6-9.4-15.5c-4.7-3.9-10.5-5.8-17.2-5.8c-7.1,0-12.9,1.9-17.4,5.6c-4.5,3.7-7.3,9-8.5,15.7H951.1z"/>
	<path d="M1065.9,658.3v210.4H1020V658.3H1065.9z"/>
	<path d="M1138.7,811.4c0,19.8,9.3,29.7,27.9,29.7c10,0,17.5-4.1,22.6-12.2h44.4c-9,29.8-31.4,44.6-67.2,44.6c-11,0-21-1.6-30.2-4.9
		c-9.1-3.3-16.9-8-23.5-14.1c-6.5-6.1-11.5-13.4-15.1-21.8c-3.5-8.5-5.3-17.9-5.3-28.4c0-10.8,1.7-20.6,5.1-29.3
		c3.4-8.7,8.2-16.1,14.5-22.2c6.3-6.1,13.8-10.8,22.7-14.1c8.9-3.3,18.9-4.9,30-4.9c11,0,20.9,1.6,29.7,4.9
		c8.8,3.3,16.2,8.1,22.3,14.3c6.1,6.3,10.7,13.9,13.9,22.9c3.2,9,4.8,19.2,4.8,30.6v4.8H1138.7z M1192.4,784.8
		c-1.5-6.4-4.7-11.6-9.4-15.5c-4.7-3.9-10.5-5.8-17.2-5.8c-7.1,0-12.9,1.9-17.4,5.6c-4.5,3.7-7.3,9-8.5,15.7H1192.4z"/>
	<path d="M1256.3,802.6c0-9.6,1.9-18.6,5.8-27c3.9-8.4,9.3-15.6,16.2-21.8c6.9-6.2,15.2-11,24.7-14.6c9.5-3.5,20-5.3,31.3-5.3
		c11.2,0,21.5,1.7,31.1,5.2c9.5,3.5,17.8,8.3,24.8,14.5c7,6.2,12.5,13.5,16.4,22.1c3.9,8.5,5.8,18,5.8,28.3c0,10.3-2,19.7-6,28.3
		c-4,8.5-9.4,15.9-16.4,22.1c-6.9,6.2-15.3,10.9-25,14.3c-9.7,3.4-20.2,5.1-31.6,5.1c-11.2,0-21.5-1.7-30.9-5.1
		c-9.5-3.4-17.6-8.2-24.5-14.5c-6.8-6.3-12.2-13.7-16.1-22.4C1258.3,822.9,1256.3,813.2,1256.3,802.6z M1304.8,803.1
		c0,4.4,0.8,8.4,2.4,12c1.6,3.6,3.7,6.8,6.3,9.5c2.6,2.7,5.7,4.8,9.4,6.3c3.6,1.5,7.5,2.3,11.5,2.3c4.1,0,7.9-0.8,11.5-2.3
		c3.6-1.5,6.8-3.6,9.4-6.3c2.6-2.7,4.7-5.9,6.3-9.5c1.6-3.6,2.4-7.6,2.4-11.8c0-4.1-0.8-7.9-2.4-11.5c-1.6-3.6-3.7-6.8-6.3-9.5
		c-2.6-2.7-5.7-4.8-9.4-6.3c-3.6-1.5-7.5-2.3-11.5-2.3c-4.1,0-7.9,0.8-11.5,2.3c-3.6,1.5-6.8,3.6-9.4,6.3c-2.6,2.7-4.7,5.8-6.3,9.4
		C1305.6,795.2,1304.8,799,1304.8,803.1z"/>
	<path d="M1438.9,738.7h45.9v16.5c6.3-7.6,12.6-12.7,19-15.3c6.4-2.6,13.9-3.9,22.6-3.9c9.1,0,16.9,1.5,23.5,4.4
		c6.5,3,12,7.1,16.6,12.5c3.7,4.4,6.3,9.3,7.6,14.7c1.4,5.4,2,11.6,2,18.5v82.7h-45.9v-65.7c0-6.4-0.5-11.6-1.4-15.6
		c-0.9-4-2.6-7.1-4.9-9.5c-2-2-4.3-3.5-6.8-4.3c-2.5-0.8-5.2-1.3-8.1-1.3c-7.8,0-13.7,2.3-17.9,7c-4.1,4.7-6.2,11.3-6.2,19.9v69.5
		h-45.9V738.7z"/>
</g>
</svg>
